<svg width="29" height="28" viewBox="0 0 29 28" fill="none" xmlns="http://www.w3.org/2000/svg">
  <g clip-path="url(#clip0_3328_8233)">
    <path d="M14.7859 11.4546V16.8764H22.4742C22.1366 18.6201 21.1235 20.0965 19.604 21.0892L24.2404 24.6147C26.9417 22.1712 28.5002 18.582 28.5002 14.3184C28.5002 13.3257 28.4093 12.371 28.2404 11.4547L14.7859 11.4546Z" fill="white"/>
    <path d="M6.77953 16.6646L5.73385 17.449L2.03247 20.2744C4.38313 24.8435 9.20098 27.9999 14.7854 27.9999C18.6425 27.9999 21.8762 26.7526 24.2399 24.6145L19.6035 21.089C18.3308 21.929 16.7074 22.4381 14.7854 22.4381C11.0711 22.4381 7.91533 19.9818 6.78537 16.6726L6.77953 16.6646Z" fill="white"/>
    <path d="M2.03261 7.72559C1.05863 9.60916 0.500244 11.7347 0.500244 14.0001C0.500244 16.2655 1.05863 18.391 2.03261 20.2746C2.03261 20.2872 6.78596 16.66 6.78596 16.66C6.50025 15.82 6.33137 14.9292 6.33137 13.9999C6.33137 13.0707 6.50025 12.1799 6.78596 11.3399L2.03261 7.72559Z" fill="white"/>
    <path d="M14.7857 5.57457C16.8896 5.57457 18.7597 6.28728 20.2532 7.66186L24.3441 3.65279C21.8636 1.38737 18.6429 0 14.7857 0C9.20127 0 4.38313 3.14365 2.03247 7.72551L6.78568 11.3401C7.91549 8.03093 11.0714 5.57457 14.7857 5.57457Z" fill="white"/>
  </g>
  <defs>
    <clipPath id="clip0_3328_8233">
      <rect width="28" height="28" fill="white" transform="translate(0.5)"/>
    </clipPath>
  </defs>
</svg>