<svg width="249" height="43" viewBox="0 0 249 43" fill="none" xmlns="http://www.w3.org/2000/svg">
<mask id="path-1-outside-1_4924_18634" maskUnits="userSpaceOnUse" x="0" y="0" width="249" height="43" fill="black">
<rect fill="white" width="249" height="43"/>
<path d="M4.65508 10.0607H25.9617V10.8262L7.39815 39.0224C19.3911 39.0224 20.6032 39.15 25.3238 32.4518L26.2807 32.7708L23.729 41H0.50858V39.4052L18.6256 12.1021H17.0946C11.2257 12.1021 8.48262 11.6555 3.6982 17.5882L2.8051 17.333L4.65508 10.0607ZM50.3668 23.9036H31.9308C31.9946 26.5191 32.6325 33.7915 37.098 36.9811C39.3945 38.6397 42.3927 39.0862 44.8806 38.3207C46.7306 37.6828 48.5168 36.407 50.3668 34.4932L51.1323 35.1311C47.6875 40.1069 43.0945 42.2758 39.0118 42.1483C35.5032 42.0207 31.0377 39.9793 28.5498 35.8328C25.424 30.6018 25.8067 21.033 28.1671 16.121C30.0808 12.1021 33.2704 9.61416 37.1618 9.04003C40.0324 8.59348 44.0513 9.2952 46.922 12.6124C49.3461 15.3555 50.3668 20.3313 50.3668 23.9036ZM42.3927 21.7985C43.222 21.7985 44.1151 21.8623 44.6893 21.1606C45.2634 20.5227 45.5186 18.6727 44.7531 15.7382C44.1151 13.3779 42.8393 11.5279 40.479 10.6348C39.0118 10.1245 37.098 10.2521 35.5032 11.3366C32.186 13.6331 31.867 19.6296 31.867 21.7985H42.3927ZM59.7079 8.4659H60.7286V14.2072C62.6423 11.8469 65.9595 8.4659 68.7664 8.4659C69.9147 8.4659 70.9991 8.65727 71.7008 9.80554C72.275 10.8262 71.956 12.6762 71.3181 13.5693C70.6802 14.5262 69.7233 14.8451 68.4474 14.7813C66.2147 14.6538 64.3647 13.3141 62.2596 15.0365C60.5372 16.5037 60.7286 18.2899 60.7286 21.9261V34.8759C60.7286 38.2569 61.1113 39.5328 62.5785 40.1069V41H52.9459V40.1069C54.2855 39.5328 54.7959 38.5121 54.7959 34.8121V18.8003C54.7959 16.5675 55.051 14.9089 52.5631 13.5693V12.8038C55.4338 11.9107 57.5389 10.5073 59.7079 8.4659ZM80.4653 9.10382C83.3998 8.52969 88.8859 9.2952 92.2669 12.9314C96.1582 17.1417 97.4341 24.2864 96.1582 29.5174C95.0738 34.238 91.9479 39.4052 86.2066 41.5103C82.7618 42.6586 78.105 42.4034 74.6602 39.6604C69.6206 35.7052 68.0896 28.6243 68.4086 24.5416C68.7275 19.6934 70.7689 13.7607 76.4464 10.571C77.8498 9.67795 79.1257 9.42278 80.4653 9.10382ZM74.5964 20.8416C74.405 22.7554 73.4482 35.8328 78.424 39.5328C80.3377 40.9362 82.8256 41 84.8032 40.1707C89.0773 38.3845 89.9704 32.5156 90.2893 30.0277C90.7359 26.264 91.2462 15.1003 86.5256 11.4641C84.4842 9.86933 81.486 9.93312 79.8274 10.571C75.5533 12.421 74.9792 18.2261 74.5964 20.8416ZM118.507 0.408687V12.5391C118.507 13.2348 118.489 13.9391 118.454 14.6522C118.42 15.3478 118.359 15.9913 118.272 16.5826H118.559C119.15 15.5739 119.898 14.7304 120.802 14.0522C121.724 13.3565 122.767 12.8348 123.933 12.487C125.098 12.1217 126.333 11.9391 127.637 11.9391C129.933 11.9391 131.846 12.3043 133.376 13.0348C134.924 13.7652 136.081 14.8956 136.846 16.4261C137.628 17.9565 138.02 19.9391 138.02 22.3739V41H133.741V22.6609C133.741 20.2783 133.194 18.4956 132.098 17.313C131.02 16.1304 129.359 15.5391 127.115 15.5391C124.994 15.5391 123.298 15.9478 122.028 16.7652C120.776 17.5652 119.872 18.7478 119.315 20.313C118.776 21.8783 118.507 23.7913 118.507 26.0522V41H114.176V0.408687H118.507ZM154.431 11.9391C157.84 11.9391 160.371 12.7043 162.023 14.2348C163.675 15.7652 164.501 18.2087 164.501 21.5652V41H161.345L160.51 36.7739H160.301C159.501 37.8174 158.666 38.6957 157.797 39.4087C156.927 40.1043 155.918 40.6348 154.771 41C153.64 41.3478 152.249 41.5217 150.597 41.5217C148.858 41.5217 147.31 41.2174 145.953 40.6087C144.614 40 143.553 39.0783 142.771 37.8435C142.005 36.6087 141.623 35.0435 141.623 33.1478C141.623 30.2956 142.753 28.1043 145.014 26.5739C147.275 25.0435 150.718 24.2087 155.345 24.0696L160.275 23.8609V22.113C160.275 19.6435 159.745 17.913 158.684 16.9217C157.623 15.9304 156.127 15.4348 154.197 15.4348C152.701 15.4348 151.275 15.6522 149.918 16.087C148.562 16.5217 147.275 17.0348 146.058 17.6261L144.727 14.3391C146.014 13.6783 147.492 13.113 149.162 12.6435C150.831 12.1739 152.588 11.9391 154.431 11.9391ZM160.223 26.913L155.866 27.0956C152.301 27.2348 149.788 27.8174 148.327 28.8435C146.866 29.8696 146.136 31.3217 146.136 33.2C146.136 34.8348 146.631 36.0435 147.623 36.8261C148.614 37.6087 149.927 38 151.562 38C154.101 38 156.179 37.2957 157.797 35.887C159.414 34.4783 160.223 32.3652 160.223 29.5478V26.913ZM183.756 11.887C187.148 11.887 189.713 12.7217 191.452 14.3913C193.191 16.0435 194.061 18.7043 194.061 22.3739V41H189.782V22.6609C189.782 20.2783 189.235 18.4956 188.139 17.313C187.061 16.1304 185.4 15.5391 183.156 15.5391C179.991 15.5391 177.765 16.4348 176.478 18.2261C175.191 20.0174 174.548 22.6174 174.548 26.0261V41H170.217V12.4087H173.713L174.365 16.5304H174.6C175.209 15.5217 175.982 14.6783 176.922 14C177.861 13.3043 178.913 12.7826 180.078 12.4348C181.243 12.0696 182.469 11.887 183.756 11.887ZM209.951 41.5217C206.333 41.5217 203.464 40.287 201.342 37.8174C199.238 35.3478 198.186 31.6783 198.186 26.8087C198.186 21.887 199.264 18.1739 201.42 15.6696C203.577 13.1478 206.446 11.887 210.029 11.887C211.542 11.887 212.864 12.087 213.994 12.487C215.125 12.887 216.099 13.4261 216.916 14.1043C217.733 14.7652 218.42 15.5217 218.977 16.3739H219.29C219.22 15.8348 219.151 15.0956 219.081 14.1565C219.012 13.2174 218.977 12.4522 218.977 11.8609V0.408687H223.307V41H219.812L219.159 36.9304H218.977C218.438 37.7826 217.751 38.5565 216.916 39.2522C216.099 39.9478 215.116 40.5043 213.968 40.9217C212.838 41.3217 211.499 41.5217 209.951 41.5217ZM210.629 37.9217C213.69 37.9217 215.855 37.0522 217.125 35.313C218.394 33.5739 219.029 30.9913 219.029 27.5652V26.7826C219.029 23.1478 218.42 20.3565 217.203 18.4087C216.003 16.4609 213.812 15.487 210.629 15.487C207.968 15.487 205.977 16.513 204.655 18.5652C203.333 20.6 202.673 23.3826 202.673 26.913C202.673 30.4261 203.325 33.1391 204.629 35.0522C205.951 36.9652 207.951 37.9217 210.629 37.9217ZM247.78 33.1739C247.78 35 247.319 36.5391 246.397 37.7913C245.493 39.0261 244.189 39.9565 242.484 40.5826C240.797 41.2087 238.78 41.5217 236.432 41.5217C234.432 41.5217 232.702 41.3652 231.241 41.0522C229.78 40.7391 228.502 40.2957 227.406 39.7217V35.7304C228.571 36.3043 229.963 36.8261 231.58 37.2957C233.197 37.7652 234.85 38 236.537 38C239.006 38 240.797 37.6 241.91 36.8C243.023 36 243.58 34.913 243.58 33.5391C243.58 32.7565 243.354 32.0696 242.902 31.4783C242.467 30.8696 241.728 30.287 240.684 29.7304C239.641 29.1565 238.197 28.5304 236.354 27.8522C234.528 27.1565 232.945 26.4696 231.606 25.7913C230.284 25.0956 229.258 24.2522 228.528 23.2609C227.815 22.2696 227.458 20.9826 227.458 19.4C227.458 16.9826 228.432 15.1304 230.38 13.8435C232.345 12.5391 234.919 11.887 238.102 11.887C239.823 11.887 241.432 12.0609 242.928 12.4087C244.441 12.7391 245.85 13.1913 247.154 13.7652L245.693 17.2348C244.51 16.7304 243.25 16.3043 241.91 15.9565C240.571 15.6087 239.206 15.4348 237.815 15.4348C235.815 15.4348 234.276 15.7652 233.197 16.4261C232.137 17.087 231.606 17.9913 231.606 19.1391C231.606 20.0261 231.85 20.7565 232.337 21.3304C232.841 21.9043 233.641 22.4435 234.737 22.9478C235.832 23.4522 237.276 24.0435 239.067 24.7217C240.858 25.3826 242.406 26.0696 243.71 26.7826C245.015 27.4783 246.015 28.3304 246.71 29.3391C247.423 30.3304 247.78 31.6087 247.78 33.1739Z"/>
</mask>
<path d="M4.65508 10.0607H25.9617V10.8262L7.39815 39.0224C19.3911 39.0224 20.6032 39.15 25.3238 32.4518L26.2807 32.7708L23.729 41H0.50858V39.4052L18.6256 12.1021H17.0946C11.2257 12.1021 8.48262 11.6555 3.6982 17.5882L2.8051 17.333L4.65508 10.0607ZM50.3668 23.9036H31.9308C31.9946 26.5191 32.6325 33.7915 37.098 36.9811C39.3945 38.6397 42.3927 39.0862 44.8806 38.3207C46.7306 37.6828 48.5168 36.407 50.3668 34.4932L51.1323 35.1311C47.6875 40.1069 43.0945 42.2758 39.0118 42.1483C35.5032 42.0207 31.0377 39.9793 28.5498 35.8328C25.424 30.6018 25.8067 21.033 28.1671 16.121C30.0808 12.1021 33.2704 9.61416 37.1618 9.04003C40.0324 8.59348 44.0513 9.2952 46.922 12.6124C49.3461 15.3555 50.3668 20.3313 50.3668 23.9036ZM42.3927 21.7985C43.222 21.7985 44.1151 21.8623 44.6893 21.1606C45.2634 20.5227 45.5186 18.6727 44.7531 15.7382C44.1151 13.3779 42.8393 11.5279 40.479 10.6348C39.0118 10.1245 37.098 10.2521 35.5032 11.3366C32.186 13.6331 31.867 19.6296 31.867 21.7985H42.3927ZM59.7079 8.4659H60.7286V14.2072C62.6423 11.8469 65.9595 8.4659 68.7664 8.4659C69.9147 8.4659 70.9991 8.65727 71.7008 9.80554C72.275 10.8262 71.956 12.6762 71.3181 13.5693C70.6802 14.5262 69.7233 14.8451 68.4474 14.7813C66.2147 14.6538 64.3647 13.3141 62.2596 15.0365C60.5372 16.5037 60.7286 18.2899 60.7286 21.9261V34.8759C60.7286 38.2569 61.1113 39.5328 62.5785 40.1069V41H52.9459V40.1069C54.2855 39.5328 54.7959 38.5121 54.7959 34.8121V18.8003C54.7959 16.5675 55.051 14.9089 52.5631 13.5693V12.8038C55.4338 11.9107 57.5389 10.5073 59.7079 8.4659ZM80.4653 9.10382C83.3998 8.52969 88.8859 9.2952 92.2669 12.9314C96.1582 17.1417 97.4341 24.2864 96.1582 29.5174C95.0738 34.238 91.9479 39.4052 86.2066 41.5103C82.7618 42.6586 78.105 42.4034 74.6602 39.6604C69.6206 35.7052 68.0896 28.6243 68.4086 24.5416C68.7275 19.6934 70.7689 13.7607 76.4464 10.571C77.8498 9.67795 79.1257 9.42278 80.4653 9.10382ZM74.5964 20.8416C74.405 22.7554 73.4482 35.8328 78.424 39.5328C80.3377 40.9362 82.8256 41 84.8032 40.1707C89.0773 38.3845 89.9704 32.5156 90.2893 30.0277C90.7359 26.264 91.2462 15.1003 86.5256 11.4641C84.4842 9.86933 81.486 9.93312 79.8274 10.571C75.5533 12.421 74.9792 18.2261 74.5964 20.8416ZM118.507 0.408687V12.5391C118.507 13.2348 118.489 13.9391 118.454 14.6522C118.42 15.3478 118.359 15.9913 118.272 16.5826H118.559C119.15 15.5739 119.898 14.7304 120.802 14.0522C121.724 13.3565 122.767 12.8348 123.933 12.487C125.098 12.1217 126.333 11.9391 127.637 11.9391C129.933 11.9391 131.846 12.3043 133.376 13.0348C134.924 13.7652 136.081 14.8956 136.846 16.4261C137.628 17.9565 138.02 19.9391 138.02 22.3739V41H133.741V22.6609C133.741 20.2783 133.194 18.4956 132.098 17.313C131.02 16.1304 129.359 15.5391 127.115 15.5391C124.994 15.5391 123.298 15.9478 122.028 16.7652C120.776 17.5652 119.872 18.7478 119.315 20.313C118.776 21.8783 118.507 23.7913 118.507 26.0522V41H114.176V0.408687H118.507ZM154.431 11.9391C157.84 11.9391 160.371 12.7043 162.023 14.2348C163.675 15.7652 164.501 18.2087 164.501 21.5652V41H161.345L160.51 36.7739H160.301C159.501 37.8174 158.666 38.6957 157.797 39.4087C156.927 40.1043 155.918 40.6348 154.771 41C153.64 41.3478 152.249 41.5217 150.597 41.5217C148.858 41.5217 147.31 41.2174 145.953 40.6087C144.614 40 143.553 39.0783 142.771 37.8435C142.005 36.6087 141.623 35.0435 141.623 33.1478C141.623 30.2956 142.753 28.1043 145.014 26.5739C147.275 25.0435 150.718 24.2087 155.345 24.0696L160.275 23.8609V22.113C160.275 19.6435 159.745 17.913 158.684 16.9217C157.623 15.9304 156.127 15.4348 154.197 15.4348C152.701 15.4348 151.275 15.6522 149.918 16.087C148.562 16.5217 147.275 17.0348 146.058 17.6261L144.727 14.3391C146.014 13.6783 147.492 13.113 149.162 12.6435C150.831 12.1739 152.588 11.9391 154.431 11.9391ZM160.223 26.913L155.866 27.0956C152.301 27.2348 149.788 27.8174 148.327 28.8435C146.866 29.8696 146.136 31.3217 146.136 33.2C146.136 34.8348 146.631 36.0435 147.623 36.8261C148.614 37.6087 149.927 38 151.562 38C154.101 38 156.179 37.2957 157.797 35.887C159.414 34.4783 160.223 32.3652 160.223 29.5478V26.913ZM183.756 11.887C187.148 11.887 189.713 12.7217 191.452 14.3913C193.191 16.0435 194.061 18.7043 194.061 22.3739V41H189.782V22.6609C189.782 20.2783 189.235 18.4956 188.139 17.313C187.061 16.1304 185.4 15.5391 183.156 15.5391C179.991 15.5391 177.765 16.4348 176.478 18.2261C175.191 20.0174 174.548 22.6174 174.548 26.0261V41H170.217V12.4087H173.713L174.365 16.5304H174.6C175.209 15.5217 175.982 14.6783 176.922 14C177.861 13.3043 178.913 12.7826 180.078 12.4348C181.243 12.0696 182.469 11.887 183.756 11.887ZM209.951 41.5217C206.333 41.5217 203.464 40.287 201.342 37.8174C199.238 35.3478 198.186 31.6783 198.186 26.8087C198.186 21.887 199.264 18.1739 201.42 15.6696C203.577 13.1478 206.446 11.887 210.029 11.887C211.542 11.887 212.864 12.087 213.994 12.487C215.125 12.887 216.099 13.4261 216.916 14.1043C217.733 14.7652 218.42 15.5217 218.977 16.3739H219.29C219.22 15.8348 219.151 15.0956 219.081 14.1565C219.012 13.2174 218.977 12.4522 218.977 11.8609V0.408687H223.307V41H219.812L219.159 36.9304H218.977C218.438 37.7826 217.751 38.5565 216.916 39.2522C216.099 39.9478 215.116 40.5043 213.968 40.9217C212.838 41.3217 211.499 41.5217 209.951 41.5217ZM210.629 37.9217C213.69 37.9217 215.855 37.0522 217.125 35.313C218.394 33.5739 219.029 30.9913 219.029 27.5652V26.7826C219.029 23.1478 218.42 20.3565 217.203 18.4087C216.003 16.4609 213.812 15.487 210.629 15.487C207.968 15.487 205.977 16.513 204.655 18.5652C203.333 20.6 202.673 23.3826 202.673 26.913C202.673 30.4261 203.325 33.1391 204.629 35.0522C205.951 36.9652 207.951 37.9217 210.629 37.9217ZM247.78 33.1739C247.78 35 247.319 36.5391 246.397 37.7913C245.493 39.0261 244.189 39.9565 242.484 40.5826C240.797 41.2087 238.78 41.5217 236.432 41.5217C234.432 41.5217 232.702 41.3652 231.241 41.0522C229.78 40.7391 228.502 40.2957 227.406 39.7217V35.7304C228.571 36.3043 229.963 36.8261 231.58 37.2957C233.197 37.7652 234.85 38 236.537 38C239.006 38 240.797 37.6 241.91 36.8C243.023 36 243.58 34.913 243.58 33.5391C243.58 32.7565 243.354 32.0696 242.902 31.4783C242.467 30.8696 241.728 30.287 240.684 29.7304C239.641 29.1565 238.197 28.5304 236.354 27.8522C234.528 27.1565 232.945 26.4696 231.606 25.7913C230.284 25.0956 229.258 24.2522 228.528 23.2609C227.815 22.2696 227.458 20.9826 227.458 19.4C227.458 16.9826 228.432 15.1304 230.38 13.8435C232.345 12.5391 234.919 11.887 238.102 11.887C239.823 11.887 241.432 12.0609 242.928 12.4087C244.441 12.7391 245.85 13.1913 247.154 13.7652L245.693 17.2348C244.51 16.7304 243.25 16.3043 241.91 15.9565C240.571 15.6087 239.206 15.4348 237.815 15.4348C235.815 15.4348 234.276 15.7652 233.197 16.4261C232.137 17.087 231.606 17.9913 231.606 19.1391C231.606 20.0261 231.85 20.7565 232.337 21.3304C232.841 21.9043 233.641 22.4435 234.737 22.9478C235.832 23.4522 237.276 24.0435 239.067 24.7217C240.858 25.3826 242.406 26.0696 243.71 26.7826C245.015 27.4783 246.015 28.3304 246.71 29.3391C247.423 30.3304 247.78 31.6087 247.78 33.1739Z" fill="#303030"/>
<path d="M4.65508 10.0607V9.76071H4.42184L4.36434 9.98675L4.65508 10.0607ZM25.9617 10.0607H26.2617V9.76071H25.9617V10.0607ZM25.9617 10.8262L26.2123 10.9912L26.2617 10.9161V10.8262H25.9617ZM7.39815 39.0224L7.14758 38.8575L6.84146 39.3224H7.39815V39.0224ZM25.3238 32.4518L25.4187 32.1672L25.2071 32.0967L25.0786 32.279L25.3238 32.4518ZM26.2807 32.7708L26.5672 32.8596L26.6542 32.5791L26.3756 32.4862L26.2807 32.7708ZM23.729 41V41.3H23.9501L24.0155 41.0888L23.729 41ZM0.50858 41H0.20858V41.3H0.50858V41ZM0.50858 39.4052L0.258606 39.2393L0.20858 39.3147V39.4052H0.50858ZM18.6256 12.1021L18.8756 12.2679L19.1847 11.8021H18.6256V12.1021ZM3.6982 17.5882L3.61578 17.8767L3.80693 17.9313L3.93172 17.7765L3.6982 17.5882ZM2.8051 17.333L2.51436 17.2591L2.44253 17.5414L2.72269 17.6215L2.8051 17.333ZM4.65508 10.0607V10.3607H25.9617V10.0607V9.76071H4.65508V10.0607ZM25.9617 10.0607H25.6617V10.8262H25.9617H26.2617V10.0607H25.9617ZM25.9617 10.8262L25.7112 10.6612L7.14758 38.8575L7.39815 39.0224L7.64872 39.1874L26.2123 10.9912L25.9617 10.8262ZM7.39815 39.0224V39.3224C10.3924 39.3224 12.7263 39.3305 14.6096 39.2373C16.493 39.1442 17.9487 38.9491 19.1838 38.5333C21.6769 37.6939 23.2084 35.9742 25.569 32.6246L25.3238 32.4518L25.0786 32.279C22.7186 35.6276 21.2837 37.1932 18.9924 37.9646C17.8353 38.3542 16.4443 38.5459 14.5799 38.6381C12.7154 38.7303 10.4004 38.7224 7.39815 38.7224V39.0224ZM25.3238 32.4518L25.2289 32.7364L26.1858 33.0554L26.2807 32.7708L26.3756 32.4862L25.4187 32.1672L25.3238 32.4518ZM26.2807 32.7708L25.9942 32.6819L23.4425 40.9112L23.729 41L24.0155 41.0888L26.5672 32.8596L26.2807 32.7708ZM23.729 41V40.7H0.50858V41V41.3H23.729V41ZM0.50858 41H0.80858V39.4052H0.50858H0.20858V41H0.50858ZM0.50858 39.4052L0.758554 39.5711L18.8756 12.2679L18.6256 12.1021L18.3756 11.9362L0.258606 39.2393L0.50858 39.4052ZM18.6256 12.1021V11.8021H17.0946V12.1021V12.4021H18.6256V12.1021ZM17.0946 12.1021V11.8021C14.1885 11.8021 11.9735 11.6867 9.9003 12.334C7.8039 12.9886 5.87615 14.4096 3.46467 17.3999L3.6982 17.5882L3.93172 17.7765C6.30467 14.8341 8.14067 13.512 10.0791 12.9067C12.0408 12.2942 14.1318 12.4021 17.0946 12.4021V12.1021ZM3.6982 17.5882L3.78061 17.2997L2.88752 17.0446L2.8051 17.333L2.72269 17.6215L3.61578 17.8767L3.6982 17.5882ZM2.8051 17.333L3.09584 17.407L4.94582 10.1347L4.65508 10.0607L4.36434 9.98675L2.51436 17.2591L2.8051 17.333ZM50.3668 23.9036V24.2036H50.6668V23.9036H50.3668ZM31.9308 23.9036V23.6036H31.6234L31.6309 23.911L31.9308 23.9036ZM37.098 36.9811L37.2736 36.7379L37.2724 36.737L37.098 36.9811ZM44.8806 38.3207L44.9689 38.6076L44.9784 38.6043L44.8806 38.3207ZM50.3668 34.4932L50.5588 34.2627L50.3448 34.0843L50.1511 34.2847L50.3668 34.4932ZM51.1323 35.1311L51.379 35.3019L51.5351 35.0763L51.3244 34.9006L51.1323 35.1311ZM39.0117 42.1483L39.0008 42.4481L39.0024 42.4481L39.0117 42.1483ZM28.5498 35.8328L28.2923 35.9867L28.2926 35.9872L28.5498 35.8328ZM28.167 16.121L28.4375 16.2509L28.4379 16.25L28.167 16.121ZM37.1618 9.04003L37.2056 9.33682L37.2079 9.33646L37.1618 9.04003ZM46.922 12.6124L46.6951 12.8087L46.6972 12.8111L46.922 12.6124ZM44.6893 21.1606L44.466 20.9597L44.4571 20.9706L44.6893 21.1606ZM44.7531 15.7382L45.0434 15.6625L45.0427 15.66L44.7531 15.7382ZM40.479 10.6348L40.5852 10.3541L40.5775 10.3515L40.479 10.6348ZM35.5032 11.3366L35.3345 11.0885L35.3324 11.0899L35.5032 11.3366ZM31.867 21.7985H31.567V22.0985H31.867V21.7985ZM50.3668 23.9036V23.6036H31.9308V23.9036V24.2036H50.3668V23.9036ZM31.9308 23.9036L31.6309 23.911C31.6631 25.2326 31.8401 27.7323 32.5753 30.3094C33.3088 32.8808 34.6105 35.573 36.9236 37.2252L37.098 36.9811L37.2724 36.737C35.12 35.1995 33.87 32.6608 33.1523 30.1448C32.4361 27.6344 32.2623 25.1901 32.2307 23.8963L31.9308 23.9036ZM37.098 36.9811L36.9223 37.2243C39.2949 38.9378 42.3908 39.4007 44.9689 38.6075L44.8806 38.3207L44.7924 38.034C42.3947 38.7717 39.4941 38.3416 37.2736 36.7379L37.098 36.9811ZM44.8806 38.3207L44.9784 38.6043C46.8888 37.9456 48.7136 36.635 50.5825 34.7017L50.3668 34.4932L50.1511 34.2847C48.32 36.1789 46.5724 37.42 44.7829 38.0371L44.8806 38.3207ZM50.3668 34.4932L50.1747 34.7236L50.9402 35.3616L51.1323 35.1311L51.3244 34.9006L50.5588 34.2627L50.3668 34.4932ZM51.1323 35.1311L50.8856 34.9603C47.4893 39.8662 42.9865 41.9723 39.0211 41.8484L39.0117 42.1483L39.0024 42.4481C43.2024 42.5794 47.8858 40.3476 51.379 35.3019L51.1323 35.1311ZM39.0117 42.1483L39.0227 41.8485C35.6048 41.7242 31.2375 39.7292 28.8071 35.6785L28.5498 35.8328L28.2926 35.9872C30.838 40.2295 35.4015 42.3172 39.0009 42.4481L39.0117 42.1483ZM28.5498 35.8328L28.8073 35.6789C27.2832 33.1284 26.6011 29.4897 26.6011 25.8573C26.6011 22.2266 27.2825 18.6544 28.4375 16.2509L28.167 16.121L27.8966 15.991C26.6912 18.4996 26.0011 22.1678 26.0011 25.8573C26.0011 29.545 26.6905 33.3062 28.2923 35.9867L28.5498 35.8328ZM28.167 16.121L28.4379 16.25C30.3146 12.309 33.4259 9.89447 37.2056 9.33681L37.1618 9.04003L37.118 8.74324C33.1149 9.33385 29.8471 11.8951 27.8962 15.992L28.167 16.121ZM37.1618 9.04003L37.2079 9.33646C40.0004 8.90208 43.9066 9.58644 46.6952 12.8087L46.922 12.6124L47.1489 12.4161C44.196 9.00396 40.0645 8.28489 37.1157 8.74359L37.1618 9.04003ZM46.922 12.6124L46.6972 12.8111C47.8673 14.1351 48.7124 16.0164 49.2641 18.0265C49.8149 20.0329 50.0668 22.1432 50.0668 23.9036H50.3668H50.6668C50.6668 22.0917 50.4083 19.9279 49.8427 17.8676C49.2781 15.8109 48.4008 13.8327 47.1468 12.4137L46.922 12.6124ZM42.3927 21.7985V22.0985C42.7895 22.0985 43.2573 22.1158 43.6898 22.0379C44.1364 21.9576 44.5765 21.7721 44.9215 21.3505L44.6893 21.1606L44.4571 20.9706C44.2279 21.2508 43.9344 21.3843 43.5836 21.4474C43.2187 21.5131 42.8253 21.4985 42.3927 21.4985V21.7985ZM44.6893 21.1606L44.9123 21.3613C45.2697 20.9642 45.4824 20.2557 45.5232 19.3237C45.5647 18.3775 45.4316 17.1508 45.0433 15.6625L44.7531 15.7382L44.4628 15.814C44.84 17.2601 44.9621 18.4256 44.9238 19.2975C44.885 20.1836 44.683 20.7191 44.4663 20.9599L44.6893 21.1606ZM44.7531 15.7382L45.0427 15.66C44.3874 13.2356 43.0603 11.2908 40.5851 10.3543L40.479 10.6348L40.3728 10.9154C42.6183 11.7651 43.8428 13.5202 44.4635 15.8165L44.7531 15.7382ZM40.479 10.6348L40.5775 10.3515C39.0255 9.81167 37.012 9.94779 35.3345 11.0885L35.5032 11.3366L35.6719 11.5846C37.184 10.5564 38.998 10.4373 40.3804 10.9182L40.479 10.6348ZM35.5032 11.3366L35.3324 11.0899C33.5813 12.3022 32.6491 14.4661 32.1494 16.5453C31.6472 18.6351 31.567 20.7029 31.567 21.7985H31.867H32.167C32.167 20.7252 32.2463 18.7102 32.7328 16.6855C33.222 14.6501 34.1079 12.6674 35.6739 11.5832L35.5032 11.3366ZM31.867 21.7985V22.0985H42.3927V21.7985V21.4985H31.867V21.7985ZM59.7079 8.4659V8.1659H59.5889L59.5023 8.24744L59.7079 8.4659ZM60.7286 8.4659L61.0286 8.4659V8.1659L60.7286 8.1659V8.4659ZM60.7286 14.2072H60.4286V15.0536L60.9616 14.3962L60.7286 14.2072ZM71.7009 9.80554L71.9625 9.65836L71.9568 9.6491L71.7009 9.80554ZM71.3181 13.5693L71.0738 13.3948L71.0685 13.4029L71.3181 13.5693ZM68.4474 14.7813L68.4303 15.0809L68.4325 15.081L68.4474 14.7813ZM62.2596 15.0365L62.0696 14.8043L62.065 14.8081L62.2596 15.0365ZM62.5785 40.1069H62.8785V39.9021L62.6879 39.8275L62.5785 40.1069ZM62.5785 41V41.3H62.8785V41H62.5785ZM52.9459 41H52.6459V41.3H52.9459V41ZM52.9459 40.1069L52.8277 39.8312L52.6459 39.9091V40.1069H52.9459ZM52.5631 13.5693H52.2631V13.7485L52.4209 13.8334L52.5631 13.5693ZM52.5631 12.8038L52.474 12.5173L52.2631 12.5829V12.8038H52.5631ZM59.7079 8.4659V8.7659H60.7286V8.4659V8.1659H59.7079V8.4659ZM60.7286 8.4659H60.4286V14.2072H60.7286H61.0286V8.4659L60.7286 8.4659ZM60.7286 14.2072L60.9616 14.3962C61.9112 13.225 63.2038 11.8073 64.6005 10.6853C66.0085 9.55412 67.4706 8.7659 68.7664 8.7659V8.4659V8.1659C67.2554 8.1659 65.6554 9.06817 64.2247 10.2176C62.7826 11.3761 61.4597 12.8291 60.4955 14.0183L60.7286 14.2072ZM68.7664 8.4659V8.7659C69.8862 8.7659 70.8281 8.95272 71.4449 9.96197L71.7009 9.80554L71.9568 9.6491C71.1702 8.36183 69.9431 8.1659 68.7664 8.1659V8.4659ZM71.7009 9.80554L71.4394 9.95262C71.6819 10.3837 71.7502 11.0271 71.6663 11.698C71.5829 12.3654 71.3563 12.9997 71.074 13.3949L71.3181 13.5693L71.5622 13.7437C71.9179 13.2458 72.1697 12.5086 72.2617 11.7725C72.3532 11.0399 72.294 10.248 71.9623 9.65846L71.7009 9.80554ZM71.3181 13.5693L71.0685 13.4029C70.5094 14.2415 69.6752 14.5424 68.4624 14.4817L68.4474 14.7813L68.4325 15.081C69.7714 15.1479 70.851 14.8108 71.5677 13.7357L71.3181 13.5693ZM68.4474 14.7813L68.4646 14.4818C67.9323 14.4514 67.4181 14.3485 66.9003 14.2324C66.3897 14.118 65.8648 13.9879 65.3458 13.9179C64.2826 13.7744 63.2031 13.8769 62.0696 14.8043L62.2596 15.0365L62.4495 15.2687C63.4212 14.4737 64.3193 14.3848 65.2655 14.5125C65.7512 14.578 66.239 14.6991 66.7691 14.8179C67.2919 14.9351 67.8462 15.0475 68.4303 15.0809L68.4474 14.7813ZM62.2596 15.0365L62.065 14.8081C61.14 15.5961 60.7282 16.4793 60.5517 17.6222C60.3796 18.7366 60.4286 20.1289 60.4286 21.9261H60.7286H61.0286C61.0286 20.0871 60.9818 18.7683 61.1447 17.7137C61.3031 16.6877 61.6568 15.9441 62.4541 15.2649L62.2596 15.0365ZM60.7286 21.9261H60.4286V34.8759H60.7286H61.0286V21.9261H60.7286ZM60.7286 34.8759H60.4286C60.4286 36.5663 60.5226 37.7759 60.8196 38.6414C60.9702 39.0804 61.1757 39.4396 61.4537 39.7302C61.7319 40.021 62.0704 40.2302 62.4692 40.3863L62.5785 40.1069L62.6879 39.8275C62.3531 39.6965 62.0935 39.531 61.8873 39.3154C61.6809 39.0997 61.5155 38.8209 61.3871 38.4466C61.1259 37.6854 61.0286 36.5666 61.0286 34.8759H60.7286ZM62.5785 40.1069H62.2785V41H62.5785H62.8785V40.1069H62.5785ZM62.5785 41V40.7H52.9459V41V41.3H62.5785V41ZM52.9459 41H53.2459V40.1069H52.9459H52.6459V41H52.9459ZM52.9459 40.1069L53.0641 40.3827C53.4223 40.2291 53.7408 40.039 54.0113 39.7707C54.2829 39.5015 54.494 39.1656 54.6543 38.7367C54.9698 37.8924 55.0959 36.6645 55.0959 34.8121H54.7959H54.4959C54.4959 36.6598 54.3668 37.7921 54.0922 38.5267C53.9575 38.8872 53.7898 39.1454 53.5889 39.3447C53.387 39.5448 53.1393 39.6976 52.8277 39.8312L52.9459 40.1069ZM54.7959 34.8121H55.0959V18.8003H54.7959H54.4959V34.8121H54.7959ZM54.7959 18.8003H55.0959C55.0959 17.7171 55.1632 16.6811 54.9008 15.7671C54.6276 14.8152 54.0076 14.0064 52.7054 13.3051L52.5631 13.5693L52.4209 13.8334C53.6066 14.4719 54.1029 15.1621 54.3241 15.9326C54.5562 16.741 54.4959 17.6507 54.4959 18.8003H54.7959ZM52.5631 13.5693H52.8631V12.8038H52.5631H52.2631V13.5693H52.5631ZM52.5631 12.8038L52.6523 13.0902C55.5764 12.1805 57.72 10.7488 59.9135 8.68436L59.7079 8.4659L59.5023 8.24744C57.3579 10.2657 55.2912 11.6409 52.474 12.5173L52.5631 12.8038ZM80.4653 9.10382L80.4077 8.80916L80.3958 8.81198L80.4653 9.10382ZM92.2669 12.9314L92.4872 12.7277L92.4866 12.7271L92.2669 12.9314ZM96.1582 29.5174L95.8668 29.4463L95.8659 29.4502L96.1582 29.5174ZM86.2066 41.5103L86.3015 41.7951L86.3099 41.792L86.2066 41.5103ZM74.6602 39.6604L74.8471 39.4257L74.8454 39.4244L74.6602 39.6604ZM68.4086 24.5416L68.7077 24.5649L68.7079 24.5613L68.4086 24.5416ZM76.4464 10.571L76.5933 10.8326L76.6005 10.8286L76.6075 10.8241L76.4464 10.571ZM74.5964 20.8416L74.2993 20.7981L74.2979 20.8118L74.5964 20.8416ZM78.424 39.5328L78.2449 39.7735L78.2466 39.7747L78.424 39.5328ZM84.8032 40.1707L84.6875 39.8939L84.6872 39.894L84.8032 40.1707ZM90.2893 30.0277L90.5869 30.0659L90.5872 30.0631L90.2893 30.0277ZM86.5256 11.4641L86.3409 11.7006L86.3425 11.7018L86.5256 11.4641ZM79.8274 10.571L79.7196 10.2908L79.7082 10.2957L79.8274 10.571ZM80.4653 9.10382L80.5229 9.39824C81.9395 9.12109 83.9982 9.16453 86.1216 9.72867C88.2426 10.2922 90.4044 11.3689 92.0472 13.1356L92.2669 12.9314L92.4866 12.7271C90.7484 10.8577 88.4766 9.73354 86.2757 9.14879C84.0771 8.56468 81.9256 8.51242 80.4077 8.8094L80.4653 9.10382ZM92.2669 12.9314L92.0466 13.135C95.8581 17.2589 97.1231 24.2952 95.8668 29.4463L96.1582 29.5174L96.4497 29.5885C97.745 24.2776 96.4584 17.0244 92.4872 12.7277L92.2669 12.9314ZM96.1582 29.5174L95.8659 29.4502C94.7963 34.1057 91.7209 39.1689 86.1033 41.2287L86.2066 41.5103L86.3099 41.792C92.1749 39.6415 95.3512 34.3703 96.4506 29.5845L96.1582 29.5174ZM86.2066 41.5103L86.1118 41.2257C82.7425 42.3488 78.1967 42.093 74.8471 39.4257L74.6602 39.6604L74.4733 39.895C78.0133 42.7139 82.7812 42.9684 86.3015 41.7949L86.2066 41.5103ZM74.6602 39.6604L74.8454 39.4244C72.3823 37.4912 70.7675 34.7864 69.808 32.0496C68.8482 29.3115 68.5516 26.5623 68.7076 24.5649L68.4086 24.5416L68.1095 24.5182C67.9466 26.6035 68.256 29.4361 69.2418 32.2481C70.228 35.0611 71.8986 37.8744 74.475 39.8964L74.6602 39.6604ZM68.4086 24.5416L68.7079 24.5613C69.0232 19.7682 71.0381 13.9535 76.5933 10.8326L76.4464 10.571L76.2995 10.3095C70.4997 13.5678 68.4318 19.6185 68.1092 24.5219L68.4086 24.5416ZM76.4464 10.571L76.6075 10.8241C77.9609 9.96286 79.1852 9.71699 80.5348 9.39566L80.4653 9.10382L80.3958 8.81198C79.0661 9.12857 77.7387 9.39305 76.2853 10.3179L76.4464 10.571ZM74.5964 20.8416L74.2979 20.8118C74.2012 21.7786 73.9125 25.5471 74.2737 29.5444C74.4543 31.5428 74.7983 33.6102 75.4159 35.4175C76.0322 37.2207 76.9317 38.797 78.2449 39.7735L78.424 39.5328L78.603 39.292C77.4284 38.4186 76.5815 36.9728 75.9837 35.2235C75.3873 33.4784 75.0495 31.463 74.8713 29.4904C74.5148 25.5455 74.8002 21.8184 74.8949 20.8715L74.5964 20.8416ZM78.424 39.5328L78.2466 39.7747C80.2592 41.2506 82.8616 41.3102 84.9192 40.4474L84.8032 40.1707L84.6872 39.894C82.7897 40.6898 80.4163 40.6218 78.6014 39.2909L78.424 39.5328ZM84.8032 40.1707L84.9189 40.4475C87.1624 39.5099 88.4968 37.5098 89.3081 35.4734C90.1205 33.4344 90.427 31.3132 90.5869 30.0659L90.2893 30.0277L89.9918 29.9896C89.8327 31.2302 89.5332 33.2873 88.7507 35.2513C87.9673 37.2178 86.7181 39.0453 84.6875 39.8939L84.8032 40.1707ZM90.2893 30.0277L90.5872 30.0631C90.8123 28.1664 91.0533 24.4106 90.6434 20.6654C90.4384 18.7926 90.0696 16.9119 89.4487 15.2637C88.8285 13.6173 87.9488 12.1817 86.7087 11.2265L86.5256 11.4641L86.3425 11.7018C87.4627 12.5646 88.2894 13.8881 88.8872 15.4752C89.4844 17.0604 89.8452 18.8876 90.0469 20.7307C90.4504 24.4174 90.2129 28.1253 89.9914 29.9924L90.2893 30.0277ZM86.5256 11.4641L86.7103 11.2277C85.6323 10.3856 84.3122 9.98863 83.0585 9.88141C81.8063 9.77431 80.5959 9.95403 79.7197 10.291L79.8274 10.571L79.9351 10.851C80.7175 10.5501 81.8355 10.379 83.0074 10.4792C84.1778 10.5793 85.3775 10.9479 86.3409 11.7005L86.5256 11.4641ZM79.8274 10.571L79.7082 10.2957C77.4628 11.2676 76.2094 13.2712 75.4705 15.3174C74.7321 17.3621 74.4891 19.5031 74.2996 20.7982L74.5964 20.8416L74.8933 20.8851C75.0865 19.5646 75.3219 17.4954 76.0348 15.5212C76.7472 13.5484 77.9179 11.7244 79.9466 10.8464L79.8274 10.571ZM118.507 0.408688H118.807V0.108686H118.507V0.408688ZM118.454 14.6522L118.754 14.6671L118.754 14.6668L118.454 14.6522ZM118.272 16.5826L117.975 16.539L117.924 16.8826H118.272V16.5826ZM118.559 16.5826V16.8826H118.731L118.818 16.7343L118.559 16.5826ZM120.802 14.0522L120.982 14.2922L120.983 14.2916L120.802 14.0522ZM123.933 12.4869L124.019 12.7744L124.022 12.7732L123.933 12.4869ZM133.376 13.0348L133.247 13.3055L133.248 13.3061L133.376 13.0348ZM136.846 16.4261L136.577 16.5603L136.579 16.5627L136.846 16.4261ZM138.02 41V41.3H138.32V41H138.02ZM133.741 41H133.441V41.3H133.741V41ZM132.098 17.313L131.876 17.5152L131.878 17.5169L132.098 17.313ZM122.028 16.7652L122.19 17.018L122.191 17.0175L122.028 16.7652ZM119.315 20.313L119.033 20.2125L119.032 20.2153L119.315 20.313ZM118.507 41V41.3H118.807V41H118.507ZM114.176 41H113.876V41.3H114.176V41ZM114.176 0.408688V0.108686H113.876V0.408688H114.176ZM118.507 0.408688H118.207V12.5391H118.507H118.807V0.408688H118.507ZM118.507 12.5391H118.207C118.207 13.2298 118.189 13.9292 118.155 14.6376L118.454 14.6522L118.754 14.6668C118.789 13.949 118.807 13.2398 118.807 12.5391H118.507ZM118.454 14.6522L118.155 14.6372C118.12 15.3248 118.06 15.9586 117.975 16.539L118.272 16.5826L118.569 16.6263C118.657 16.024 118.719 15.3709 118.754 14.6671L118.454 14.6522ZM118.272 16.5826V16.8826H118.559V16.5826V16.2826H118.272V16.5826ZM118.559 16.5826L118.818 16.7343C119.389 15.7588 120.111 14.9457 120.982 14.2922L120.802 14.0522L120.622 13.8122C119.685 14.5152 118.911 15.389 118.3 16.4309L118.559 16.5826ZM120.802 14.0522L120.983 14.2916C121.875 13.6186 122.886 13.1126 124.019 12.7744L123.933 12.4869L123.847 12.1995C122.649 12.557 121.573 13.0944 120.622 13.8127L120.802 14.0522ZM123.933 12.4869L124.022 12.7732C125.157 12.4177 126.361 12.2391 127.637 12.2391V11.9391V11.6391C126.304 11.6391 125.039 11.8258 123.843 12.2007L123.933 12.4869ZM127.637 11.9391V12.2391C129.903 12.2391 131.769 12.5999 133.247 13.3055L133.376 13.0348L133.505 12.764C131.923 12.0088 129.962 11.6391 127.637 11.6391V11.9391ZM133.376 13.0348L133.248 13.3061C134.735 14.0078 135.842 15.09 136.577 16.5602L136.846 16.4261L137.114 16.2919C136.319 14.7013 135.113 13.5226 133.504 12.7635L133.376 13.0348ZM136.846 16.4261L136.579 16.5627C137.333 18.0369 137.72 19.9681 137.72 22.3739H138.02H138.32C138.32 19.9102 137.924 17.8761 137.113 16.2895L136.846 16.4261ZM138.02 22.3739H137.72V41H138.02H138.32V22.3739H138.02ZM138.02 41V40.7H133.741V41V41.3H138.02V41ZM133.741 41H134.041V22.6609H133.741H133.441V41H133.741ZM133.741 22.6609H134.041C134.041 20.2382 133.485 18.3687 132.318 17.1091L132.098 17.313L131.878 17.5169C132.902 18.6226 133.441 20.3184 133.441 22.6609H133.741ZM132.098 17.313L132.32 17.1109C131.165 15.8441 129.408 15.2391 127.115 15.2391V15.5391V15.8391C129.309 15.8391 130.875 16.4167 131.876 17.5152L132.098 17.313ZM127.115 15.5391V15.2391C124.958 15.2391 123.2 15.6542 121.866 16.513L122.028 16.7652L122.191 17.0175C123.396 16.2415 125.029 15.8391 127.115 15.8391V15.5391ZM122.028 16.7652L121.867 16.5124C120.552 17.3525 119.609 18.5923 119.033 20.2125L119.315 20.313L119.598 20.4135C120.135 18.9033 121 17.7779 122.19 17.018L122.028 16.7652ZM119.315 20.313L119.032 20.2153C118.479 21.8211 118.207 23.7694 118.207 26.0522H118.507H118.807C118.807 23.8132 119.074 21.9354 119.599 20.4107L119.315 20.313ZM118.507 26.0522H118.207V41H118.507H118.807V26.0522H118.507ZM118.507 41V40.7H114.176V41V41.3H118.507V41ZM114.176 41H114.476V0.408688H114.176H113.876V41H114.176ZM114.176 0.408688V0.708687H118.507V0.408688V0.108686H114.176V0.408688ZM162.023 14.2348L161.819 14.4549L162.023 14.2348ZM164.501 41V41.3H164.801V41H164.501ZM161.345 41L161.05 41.0581L161.098 41.3H161.345V41ZM160.51 36.7739L160.804 36.7158L160.756 36.4739H160.51V36.7739ZM160.301 36.7739V36.4739H160.153L160.063 36.5914L160.301 36.7739ZM157.797 39.4087L157.984 39.643L157.987 39.6407L157.797 39.4087ZM154.771 41L154.859 41.2867L154.862 41.2859L154.771 41ZM145.953 40.6087L145.829 40.8818L145.83 40.8824L145.953 40.6087ZM142.771 37.8435L142.516 38.0015L142.517 38.0041L142.771 37.8435ZM145.014 26.5739L144.846 26.3255L145.014 26.5739ZM155.345 24.0696L155.354 24.3694L155.357 24.3693L155.345 24.0696ZM160.275 23.8609L160.288 24.1606L160.575 24.1484V23.8609H160.275ZM146.058 17.6261L145.779 17.7386L145.9 18.0362L146.189 17.8959L146.058 17.6261ZM144.727 14.3391L144.59 14.0723L144.346 14.1975L144.449 14.4517L144.727 14.3391ZM160.223 26.913H160.523V26.6002L160.21 26.6133L160.223 26.913ZM155.866 27.0956L155.878 27.3954L155.879 27.3954L155.866 27.0956ZM154.431 11.9391V12.2391C157.802 12.2391 160.245 12.9967 161.819 14.4549L162.023 14.2348L162.227 14.0147C160.496 12.412 157.878 11.6391 154.431 11.6391V11.9391ZM162.023 14.2348L161.819 14.4549C163.385 15.9056 164.201 18.2512 164.201 21.5652H164.501H164.801C164.801 18.1662 163.965 15.6248 162.227 14.0147L162.023 14.2348ZM164.501 21.5652H164.201V41H164.501H164.801V21.5652H164.501ZM164.501 41V40.7H161.345V41V41.3H164.501V41ZM161.345 41L161.639 40.9419L160.804 36.7158L160.51 36.7739L160.215 36.832L161.05 41.0581L161.345 41ZM160.51 36.7739V36.4739H160.301V36.7739V37.0739H160.51V36.7739ZM160.301 36.7739L160.063 36.5914C159.275 37.6196 158.456 38.4805 157.606 39.1767L157.797 39.4087L157.987 39.6407C158.877 38.9108 159.727 38.0152 160.539 36.9564L160.301 36.7739ZM157.797 39.4087L157.609 39.1744C156.771 39.8453 155.795 40.3591 154.68 40.7141L154.771 41L154.862 41.2859C156.042 40.9104 157.084 40.3634 157.984 39.643L157.797 39.4087ZM154.771 41L154.682 40.7133C153.589 41.0496 152.23 41.2217 150.597 41.2217V41.5217V41.8217C152.268 41.8217 153.691 41.6461 154.859 41.2867L154.771 41ZM150.597 41.5217V41.2217C148.893 41.2217 147.388 40.9237 146.076 40.335L145.953 40.6087L145.83 40.8824C147.232 41.5111 148.822 41.8217 150.597 41.8217V41.5217ZM145.953 40.6087L146.077 40.3356C144.791 39.7509 143.775 38.8681 143.024 37.6829L142.771 37.8435L142.517 38.0041C143.331 39.2885 144.437 40.2491 145.829 40.8818L145.953 40.6087ZM142.771 37.8435L143.026 37.6854C142.298 36.5106 141.923 35.0043 141.923 33.1478H141.623H141.323C141.323 35.0826 141.713 36.7068 142.516 38.0015L142.771 37.8435ZM141.623 33.1478H141.923C141.923 30.3899 143.008 28.2941 145.182 26.8223L145.014 26.5739L144.846 26.3255C142.498 27.9146 141.323 30.2014 141.323 33.1478H141.623ZM145.014 26.5739L145.182 26.8223C147.374 25.339 150.749 24.5079 155.354 24.3694L155.345 24.0696L155.336 23.7697C150.688 23.9095 147.176 24.748 144.846 26.3255L145.014 26.5739ZM155.345 24.0696L155.357 24.3693L160.288 24.1606L160.275 23.8609L160.262 23.5611L155.332 23.7698L155.345 24.0696ZM160.275 23.8609H160.575V22.113H160.275H159.975V23.8609H160.275ZM160.275 22.113H160.575C160.575 19.6155 160.041 17.7796 158.888 16.7025L158.684 16.9217L158.479 17.1409C159.448 18.0465 159.975 19.6714 159.975 22.113H160.275ZM158.684 16.9217L158.888 16.7025C157.756 15.6441 156.178 15.1348 154.197 15.1348V15.4348V15.7348C156.077 15.7348 157.49 16.2168 158.479 17.1409L158.684 16.9217ZM154.197 15.4348V15.1348C152.672 15.1348 151.214 15.3565 149.827 15.8013L149.918 16.087L150.01 16.3726C151.335 15.9478 152.731 15.7348 154.197 15.7348V15.4348ZM149.918 16.087L149.827 15.8013C148.458 16.2402 147.157 16.7584 145.926 17.3562L146.058 17.6261L146.189 17.8959C147.393 17.3111 148.666 16.8033 150.01 16.3726L149.918 16.087ZM146.058 17.6261L146.336 17.5135L145.005 14.2266L144.727 14.3391L144.449 14.4517L145.779 17.7386L146.058 17.6261ZM144.727 14.3391L144.864 14.606C146.13 13.9559 147.589 13.3974 149.243 12.9323L149.162 12.6435L149.081 12.3547C147.396 12.8286 145.898 13.4006 144.59 14.0723L144.727 14.3391ZM149.162 12.6435L149.243 12.9323C150.885 12.4706 152.614 12.2391 154.431 12.2391V11.9391V11.6391C152.562 11.6391 150.778 11.8772 149.081 12.3547L149.162 12.6435ZM160.223 26.913L160.21 26.6133L155.854 26.7959L155.866 27.0956L155.879 27.3954L160.235 27.2128L160.223 26.913ZM155.866 27.0956L155.855 26.7959C152.279 26.9354 149.691 27.5192 148.155 28.598L148.327 28.8435L148.5 29.089C149.885 28.1156 152.323 27.5342 155.878 27.3954L155.866 27.0956ZM148.327 28.8435L148.155 28.598C146.609 29.6836 145.836 31.23 145.836 33.2H146.136H146.436C146.436 31.4134 147.123 30.0555 148.5 29.089L148.327 28.8435ZM146.136 33.2H145.836C145.836 34.8972 146.353 36.2061 147.437 37.0616L147.623 36.8261L147.809 36.5906C146.91 35.8809 146.436 34.7723 146.436 33.2H146.136ZM147.623 36.8261L147.437 37.0616C148.495 37.8969 149.88 38.3 151.562 38.3V38V37.7C149.975 37.7 148.733 37.3205 147.809 36.5906L147.623 36.8261ZM151.562 38V38.3C154.159 38.3 156.312 37.5779 157.994 36.1132L157.797 35.887L157.6 35.6607C156.047 37.0134 154.043 37.7 151.562 37.7V38ZM157.797 35.887L157.994 36.1132C159.696 34.6309 160.523 32.4231 160.523 29.5478H160.223H159.923C159.923 32.3074 159.133 34.3256 157.6 35.6607L157.797 35.887ZM160.223 29.5478H160.523V26.913H160.223H159.923V29.5478H160.223ZM191.452 14.3913L191.244 14.6077L191.245 14.6088L191.452 14.3913ZM194.061 41V41.3H194.361V41H194.061ZM189.782 41H189.482V41.3H189.782V41ZM188.139 17.313L187.917 17.5152L187.919 17.5169L188.139 17.313ZM174.548 41V41.3H174.848V41H174.548ZM170.217 41H169.917V41.3H170.217V41ZM170.217 12.4087V12.1087H169.917V12.4087H170.217ZM173.713 12.4087L174.009 12.3618L173.969 12.1087H173.713V12.4087ZM174.365 16.5304L174.069 16.5773L174.109 16.8304H174.365V16.5304ZM174.6 16.5304V16.8304H174.769L174.857 16.6854L174.6 16.5304ZM176.922 14L177.097 14.2432L177.1 14.2411L176.922 14ZM180.078 12.4348L180.164 12.7223L180.168 12.721L180.078 12.4348ZM183.756 11.887V12.187C187.102 12.187 189.58 13.0103 191.244 14.6077L191.452 14.3913L191.66 14.1749C189.845 12.4331 187.193 11.587 183.756 11.587V11.887ZM191.452 14.3913L191.245 14.6088C192.9 16.1803 193.761 18.7435 193.761 22.3739H194.061H194.361C194.361 18.6652 193.483 15.9067 191.659 14.1738L191.452 14.3913ZM194.061 22.3739H193.761V41H194.061H194.361V22.3739H194.061ZM194.061 41V40.7H189.782V41V41.3H194.061V41ZM189.782 41H190.082V22.6609H189.782H189.482V41H189.782ZM189.782 22.6609H190.082C190.082 20.2382 189.526 18.3687 188.359 17.1091L188.139 17.313L187.919 17.5169C188.943 18.6226 189.482 20.3184 189.482 22.6609H189.782ZM188.139 17.313L188.361 17.1109C187.206 15.8441 185.449 15.2391 183.156 15.2391V15.5391V15.8391C185.35 15.8391 186.916 16.4167 187.917 17.5152L188.139 17.313ZM183.156 15.5391V15.2391C179.939 15.2391 177.6 16.1509 176.234 18.051L176.478 18.2261L176.722 18.4011C177.931 16.7186 180.043 15.8391 183.156 15.8391V15.5391ZM176.478 18.2261L176.234 18.051C174.896 19.9143 174.248 22.5866 174.248 26.0261H174.548H174.848C174.848 22.6482 175.486 20.1204 176.722 18.4011L176.478 18.2261ZM174.548 26.0261H174.248V41H174.548H174.848V26.0261H174.548ZM174.548 41V40.7H170.217V41V41.3H174.548V41ZM170.217 41H170.517V12.4087H170.217H169.917V41H170.217ZM170.217 12.4087V12.7087H173.713V12.4087V12.1087H170.217V12.4087ZM173.713 12.4087L173.417 12.4556L174.069 16.5773L174.365 16.5304L174.661 16.4835L174.009 12.3618L173.713 12.4087ZM174.365 16.5304V16.8304H174.6V16.5304V16.2304H174.365V16.5304ZM174.6 16.5304L174.857 16.6854C175.445 15.7107 176.191 14.8974 177.097 14.2432L176.922 14L176.746 13.7568C175.773 14.4591 174.972 15.3328 174.343 16.3754L174.6 16.5304ZM176.922 14L177.1 14.2411C178.01 13.567 179.031 13.0605 180.164 12.7222L180.078 12.4348L179.992 12.1473C178.795 12.5047 177.711 13.0417 176.743 13.7589L176.922 14ZM180.078 12.4348L180.168 12.721C181.302 12.3654 182.498 12.187 183.756 12.187V11.887V11.587C182.441 11.587 181.184 11.7737 179.988 12.1485L180.078 12.4348ZM201.342 37.8174L201.114 38.012L201.115 38.0129L201.342 37.8174ZM201.42 15.6696L201.648 15.8653L201.648 15.8645L201.42 15.6696ZM216.916 14.1043L216.724 14.3352L216.727 14.3376L216.916 14.1043ZM218.977 16.3739L218.726 16.5379L218.814 16.6739H218.977V16.3739ZM219.29 16.3739V16.6739H219.631L219.587 16.3355L219.29 16.3739ZM218.977 0.408688V0.108686H218.677V0.408688H218.977ZM223.307 0.408688H223.607V0.108686H223.307V0.408688ZM223.307 41V41.3H223.607V41H223.307ZM219.812 41L219.515 41.0475L219.556 41.3H219.812V41ZM219.159 36.9304L219.456 36.883L219.415 36.6304H219.159V36.9304ZM218.977 36.9304V36.6304H218.812L218.723 36.77L218.977 36.9304ZM216.916 39.2522L216.724 39.0217L216.722 39.0237L216.916 39.2522ZM213.968 40.9217L214.068 41.2046L214.071 41.2037L213.968 40.9217ZM217.203 18.4087L216.948 18.5661L216.949 18.5677L217.203 18.4087ZM204.655 18.5652L204.907 18.7286L204.907 18.7277L204.655 18.5652ZM204.629 35.0522L204.381 35.2212L204.382 35.2227L204.629 35.0522ZM209.951 41.5217V41.2217C206.41 41.2217 203.628 40.0173 201.57 37.6219L201.342 37.8174L201.115 38.0129C203.3 40.5566 206.257 41.8217 209.951 41.8217V41.5217ZM201.342 37.8174L201.57 37.6228C199.531 35.229 198.486 31.6414 198.486 26.8087H198.186H197.886C197.886 31.7151 198.945 35.4666 201.114 38.012L201.342 37.8174ZM198.186 26.8087H198.486C198.486 21.9247 199.556 18.294 201.648 15.8653L201.42 15.6696L201.193 15.4738C198.971 18.0538 197.886 21.8492 197.886 26.8087H198.186ZM201.42 15.6696L201.648 15.8645C203.743 13.4152 206.526 12.187 210.029 12.187V11.887V11.587C206.367 11.587 203.411 12.8804 201.192 15.4746L201.42 15.6696ZM210.029 11.887V12.187C211.517 12.187 212.803 12.3837 213.894 12.7698L213.994 12.4869L214.094 12.2041C212.925 11.7902 211.568 11.587 210.029 11.587V11.887ZM213.994 12.4869L213.894 12.7698C214.996 13.1595 215.938 13.6822 216.724 14.3352L216.916 14.1043L217.108 13.8735C216.26 13.1699 215.254 12.6144 214.094 12.2041L213.994 12.4869ZM216.916 14.1043L216.727 14.3376C217.521 14.9795 218.187 15.7128 218.726 16.5379L218.977 16.3739L219.228 16.2099C218.654 15.3306 217.946 14.5509 217.105 13.8711L216.916 14.1043ZM218.977 16.3739V16.6739H219.29V16.3739V16.0739H218.977V16.3739ZM219.29 16.3739L219.587 16.3355C219.519 15.8043 219.45 15.0714 219.38 14.1344L219.081 14.1565L218.782 14.1787C218.852 15.1199 218.922 15.8653 218.992 16.4123L219.29 16.3739ZM219.081 14.1565L219.38 14.1344C219.311 13.1988 219.277 12.4418 219.277 11.8609H218.977H218.677C218.677 12.4626 218.712 13.2359 218.782 14.1787L219.081 14.1565ZM218.977 11.8609H219.277V0.408688H218.977H218.677V11.8609H218.977ZM218.977 0.408688V0.708687H223.307V0.408688V0.108686H218.977V0.408688ZM223.307 0.408688H223.007V41H223.307H223.607V0.408688H223.307ZM223.307 41V40.7H219.812V41V41.3H223.307V41ZM219.812 41L220.108 40.9525L219.456 36.883L219.159 36.9304L218.863 36.9779L219.515 41.0475L219.812 41ZM219.159 36.9304V36.6304H218.977V36.9304V37.2304H219.159V36.9304ZM218.977 36.9304L218.723 36.77C218.202 37.5938 217.537 38.3445 216.724 39.0217L216.916 39.2522L217.108 39.4826C217.965 38.7685 218.673 37.9714 219.23 37.0908L218.977 36.9304ZM216.916 39.2522L216.722 39.0237C215.935 39.6932 214.984 40.233 213.866 40.6398L213.968 40.9217L214.071 41.2037C215.248 40.7757 216.262 40.2024 217.11 39.4806L216.916 39.2522ZM213.968 40.9217L213.868 40.6389C212.778 41.0248 211.474 41.2217 209.951 41.2217V41.5217V41.8217C211.523 41.8217 212.898 41.6187 214.068 41.2046L213.968 40.9217ZM210.629 37.9217V38.2217C213.743 38.2217 216.02 37.3356 217.367 35.4899L217.125 35.313L216.882 35.1362C215.691 36.7688 213.637 37.6217 210.629 37.6217V37.9217ZM217.125 35.313L217.367 35.4899C218.69 33.6771 219.329 31.0201 219.329 27.5652H219.029H218.729C218.729 30.9625 218.098 33.4707 216.882 35.1362L217.125 35.313ZM219.029 27.5652H219.329V26.7826H219.029H218.729V27.5652H219.029ZM219.029 26.7826H219.329C219.329 23.1215 218.717 20.2654 217.457 18.2497L217.203 18.4087L216.949 18.5677C218.124 20.4476 218.729 23.1742 218.729 26.7826H219.029ZM217.203 18.4087L217.458 18.2513C216.184 16.1823 213.871 15.187 210.629 15.187V15.4869V15.787C213.753 15.787 215.822 16.7395 216.948 18.566L217.203 18.4087ZM210.629 15.4869V15.187C207.877 15.187 205.786 16.256 204.403 18.4028L204.655 18.5652L204.907 18.7277C206.168 16.77 208.059 15.787 210.629 15.787V15.4869ZM204.655 18.5652L204.404 18.4018C203.039 20.5026 202.373 23.3496 202.373 26.913H202.673H202.973C202.973 23.4156 203.628 20.6974 204.907 18.7286L204.655 18.5652ZM202.673 26.913H202.373C202.373 30.4572 203.029 33.2387 204.381 35.2212L204.629 35.0522L204.877 34.8832C203.62 33.0396 202.973 30.395 202.973 26.913H202.673ZM204.629 35.0522L204.382 35.2227C205.769 37.2301 207.87 38.2217 210.629 38.2217V37.9217V37.6217C208.032 37.6217 206.132 36.7004 204.876 34.8816L204.629 35.0522ZM246.397 37.7913L246.156 37.6135L246.155 37.614L246.397 37.7913ZM242.484 40.5826L242.381 40.301L242.38 40.3014L242.484 40.5826ZM227.406 39.7217H227.106V39.9033L227.267 39.9875L227.406 39.7217ZM227.406 35.7304L227.539 35.4613L227.106 35.2483V35.7304H227.406ZM241.91 36.8L241.735 36.5564L241.91 36.8ZM242.902 31.4783L242.658 31.6527L242.663 31.6605L242.902 31.4783ZM240.684 29.7304L240.54 29.9933L240.543 29.9951L240.684 29.7304ZM236.354 27.8522L236.247 28.1325L236.25 28.1337L236.354 27.8522ZM231.606 25.7913L231.466 26.0568L231.471 26.0589L231.606 25.7913ZM228.528 23.2609L228.284 23.4361L228.286 23.4388L228.528 23.2609ZM230.38 13.8435L230.545 14.0938L230.546 14.0934L230.38 13.8435ZM242.928 12.4087L242.86 12.7009L242.864 12.7018L242.928 12.4087ZM247.154 13.7652L247.43 13.8816L247.545 13.6095L247.275 13.4906L247.154 13.7652ZM245.693 17.2348L245.575 17.5107L245.853 17.629L245.97 17.3512L245.693 17.2348ZM241.91 15.9565L241.835 16.2469L241.91 15.9565ZM233.197 16.4261L233.041 16.1703L233.039 16.1714L233.197 16.4261ZM232.337 21.3304L232.108 21.5246L232.111 21.5285L232.337 21.3304ZM239.067 24.7217L238.961 25.0023L238.963 25.0032L239.067 24.7217ZM243.71 26.7826L243.567 27.0459L243.569 27.0473L243.71 26.7826ZM246.71 29.3391L246.463 29.5095L246.467 29.5143L246.71 29.3391ZM247.78 33.1739H247.48C247.48 34.9475 247.033 36.4214 246.156 37.6135L246.397 37.7913L246.639 37.9692C247.605 36.6569 248.08 35.0525 248.08 33.1739H247.78ZM246.397 37.7913L246.155 37.614C245.292 38.7929 244.04 39.6914 242.381 40.301L242.484 40.5826L242.588 40.8642C244.337 40.2216 245.694 39.2593 246.639 37.9686L246.397 37.7913ZM242.484 40.5826L242.38 40.3014C240.735 40.9119 238.755 41.2217 236.432 41.2217V41.5217V41.8217C238.805 41.8217 240.86 41.5055 242.589 40.8639L242.484 40.5826ZM236.432 41.5217V41.2217C234.447 41.2217 232.738 41.0662 231.304 40.7588L231.241 41.0522L231.178 41.3455C232.665 41.6642 234.418 41.8217 236.432 41.8217V41.5217ZM231.241 41.0522L231.304 40.7588C229.864 40.4503 228.613 40.015 227.545 39.456L227.406 39.7217L227.267 39.9875C228.391 40.5763 229.696 41.0279 231.178 41.3455L231.241 41.0522ZM227.406 39.7217H227.706V35.7304H227.406H227.106V39.7217H227.406ZM227.406 35.7304L227.274 35.9996C228.458 36.5831 229.867 37.1107 231.496 37.5838L231.58 37.2957L231.664 37.0075C230.058 36.5415 228.684 36.0256 227.539 35.4613L227.406 35.7304ZM231.58 37.2957L231.496 37.5838C233.141 38.0612 234.821 38.3 236.537 38.3V38V37.7C234.878 37.7 233.254 37.4692 231.664 37.0075L231.58 37.2957ZM236.537 38V38.3C239.025 38.3 240.895 37.8996 242.086 37.0436L241.91 36.8L241.735 36.5564C240.7 37.3004 238.987 37.7 236.537 37.7V38ZM241.91 36.8L242.086 37.0436C243.277 36.1871 243.88 35.0093 243.88 33.5391H243.58H243.28C243.28 34.8167 242.77 35.8129 241.735 36.5564L241.91 36.8ZM243.58 33.5391H243.88C243.88 32.6943 243.634 31.9425 243.14 31.296L242.902 31.4783L242.663 31.6605C243.073 32.1967 243.28 32.8188 243.28 33.5391H243.58ZM242.902 31.4783L243.146 31.3039C242.673 30.6419 241.889 30.0327 240.826 29.4657L240.684 29.7304L240.543 29.9951C241.567 30.5412 242.261 31.0972 242.658 31.6526L242.902 31.4783ZM240.684 29.7304L240.829 29.4676C239.767 28.8833 238.307 28.2512 236.458 27.5706L236.354 27.8522L236.25 28.1337C238.088 28.8097 239.515 29.4298 240.54 29.9933L240.684 29.7304ZM236.354 27.8522L236.461 27.5718C234.642 26.8789 233.069 26.196 231.742 25.5237L231.606 25.7913L231.471 26.0589C232.821 26.7431 234.414 27.4342 236.247 28.1325L236.354 27.8522ZM231.606 25.7913L231.746 25.5258C230.456 24.8469 229.468 24.0308 228.769 23.0829L228.528 23.2609L228.286 23.4388C229.049 24.4736 230.113 25.3444 231.466 26.0568L231.606 25.7913ZM228.528 23.2609L228.771 23.0857C228.105 22.1587 227.758 20.9383 227.758 19.4H227.458H227.158C227.158 21.0269 227.525 22.3805 228.284 23.436L228.528 23.2609ZM227.458 19.4H227.758C227.758 17.0791 228.685 15.3229 230.545 14.0938L230.38 13.8435L230.215 13.5932C228.179 14.938 227.158 16.8862 227.158 19.4H227.458ZM230.38 13.8435L230.546 14.0934C232.448 12.8313 234.958 12.187 238.102 12.187V11.887V11.587C234.88 11.587 232.243 12.2469 230.214 13.5935L230.38 13.8435ZM238.102 11.887V12.187C239.803 12.187 241.389 12.3588 242.86 12.7009L242.928 12.4087L242.996 12.1165C241.475 11.7629 239.844 11.587 238.102 11.587V11.887ZM242.928 12.4087L242.864 12.7018C244.359 13.0283 245.749 13.4746 247.033 14.0398L247.154 13.7652L247.275 13.4906C245.951 12.908 244.523 12.4499 242.992 12.1156L242.928 12.4087ZM247.154 13.7652L246.877 13.6488L245.417 17.1184L245.693 17.2348L245.97 17.3512L247.43 13.8816L247.154 13.7652ZM245.693 17.2348L245.811 16.9588C244.613 16.4482 243.338 16.0174 241.986 15.6662L241.91 15.9565L241.835 16.2469C243.161 16.5912 244.407 17.0127 245.575 17.5107L245.693 17.2348ZM241.91 15.9565L241.986 15.6662C240.622 15.3119 239.231 15.1348 237.815 15.1348V15.4348V15.7348C239.181 15.7348 240.521 15.9055 241.835 16.2469L241.91 15.9565ZM237.815 15.4348V15.1348C235.789 15.1348 234.186 15.4683 233.041 16.1703L233.197 16.4261L233.354 16.6819C234.365 16.0621 235.841 15.7348 237.815 15.7348V15.4348ZM233.197 16.4261L233.039 16.1714C231.899 16.8813 231.306 17.8771 231.306 19.1391H231.606H231.906C231.906 18.1055 232.374 17.2926 233.356 16.6807L233.197 16.4261ZM231.606 19.1391H231.306C231.306 20.0839 231.567 20.887 232.108 21.5245L232.337 21.3304L232.565 21.1363C232.132 20.626 231.906 19.9683 231.906 19.1391H231.606ZM232.337 21.3304L232.111 21.5285C232.655 22.1469 233.497 22.7075 234.611 23.2203L234.737 22.9478L234.862 22.6753C233.785 22.1795 233.027 21.6618 232.562 21.1324L232.337 21.3304ZM234.737 22.9478L234.611 23.2203C235.716 23.7288 237.166 24.3228 238.961 25.0023L239.067 24.7217L239.173 24.4412C237.385 23.7641 235.949 23.1756 234.862 22.6753L234.737 22.9478ZM239.067 24.7217L238.963 25.0032C240.744 25.6603 242.278 26.3415 243.567 27.0458L243.71 26.7826L243.854 26.5194C242.534 25.7976 240.972 25.1049 239.171 24.4403L239.067 24.7217ZM243.71 26.7826L243.569 27.0473C244.84 27.725 245.8 28.5476 246.463 29.5094L246.71 29.3391L246.957 29.1688C246.229 28.1133 245.19 27.2315 243.852 26.5179L243.71 26.7826ZM246.71 29.3391L246.467 29.5143C247.134 30.4418 247.48 31.6538 247.48 33.1739H247.78H248.08C248.08 31.5636 247.713 30.219 246.954 29.1639L246.71 29.3391Z" fill="#303030" mask="url(#path-1-outside-1_4924_18634)"/>
</svg>
